HIERARCHY
ROOT hip
{
	OFFSET 0.000000 0.000000 0.000000
	CHANNELS 6 Xposition Yposition Zposition Xrotation Zrotation Yrotation 
	JOINT abdomen
	{
		OFFSET 0.000000 3.422050 0.000000
		CHANNELS 3 Xrotation Zrotation Yrotation 
		JOINT chest
		{
			OFFSET 0.000000 8.486693 -0.684411
			CHANNELS 3 Xrotation Zrotation Yrotation 
			JOINT neck
			{
				OFFSET 0.000000 10.266162 -0.273764
				CHANNELS 3 Xrotation Zrotation Yrotation 
				JOINT head
				{
					OFFSET 0.000000 3.148285 0.000000
					CHANNELS 3 Xrotation Zrotation Yrotation 
					End Site
					{
						OFFSET 0.000000 3.148289 0.000000
					}
				}
			}
			JOINT lCollar
			{
				OFFSET 3.422053 6.707223 -0.821293
				CHANNELS 3 Yrotation Zrotation Xrotation 
				JOINT lShldr
				{
					OFFSET 3.285171 0.000000 0.000000
					CHANNELS 3 Zrotation Yrotation Xrotation 
					JOINT lForeArm
					{
						OFFSET 10.129278 0.000000 0.000000
						CHANNELS 3 Yrotation Zrotation Xrotation 
						JOINT lHand
						{
							OFFSET 8.486692 0.000000 0.000000
							CHANNELS 3 Zrotation Yrotation Xrotation 
							End Site
							{
								OFFSET 4.106464 0.000000 0.000000
							}
						}
					}
				}
			}
			JOINT rCollar
			{
				OFFSET -3.558935 6.707223 -0.821293
				CHANNELS 3 Yrotation Zrotation Xrotation 
				JOINT rShldr
				{
					OFFSET -3.148289 0.000000 0.000000
					CHANNELS 3 Zrotation Yrotation Xrotation 
					JOINT rForeArm
					{
						OFFSET -10.266159 0.000000 0.000000
						CHANNELS 3 Yrotation Zrotation Xrotation 
						JOINT rHand
						{
							OFFSET -8.349810 0.000000 0.000000
							CHANNELS 3 Zrotation Yrotation Xrotation 
							End Site
							{
								OFFSET -4.106464 0.000000 0.000000
							}
						}
					}
				}
			}
		}
	}
	JOINT lThigh
	{
		OFFSET 5.338403 -1.642589 1.368821
		CHANNELS 3 Xrotation Zrotation Yrotation 
		JOINT lShin
		{
			OFFSET -2.053232 -20.121670 0.000000
			CHANNELS 3 Xrotation Zrotation Yrotation 
			JOINT lFoot
			{
				OFFSET 0.000000 -19.300380 -1.231939
				CHANNELS 3 Xrotation Yrotation Zrotation 
				End Site
				{
					OFFSET 0.000000 -2.463878 4.653993
				}
			}
		}
	}
	JOINT rThigh
	{
		OFFSET -5.338403 -1.642589 1.368821
		CHANNELS 3 Xrotation Zrotation Yrotation 
		JOINT rShin
		{
			OFFSET 2.053232 -20.121670 0.000000
			CHANNELS 3 Xrotation Zrotation Yrotation 
			JOINT rFoot
			{
				OFFSET 0.000000 -19.300380 -1.231939
				CHANNELS 3 Xrotation Yrotation Zrotation 
				End Site
				{
					OFFSET 0.000000 -2.463878 4.653993
				}
			}
		}
	}
}
MOTION
Frames: 6
Frame Time: 0.033264
19.995884 16.912365 14.060793 65.273979 -0.000000 0.000001 46.157341 -0.822242 -0.803131 35.089130 -0.567035 -0.343228 -30.199938 -9.615950 46.240616 -19.447315 14.534123 18.509260 -4.595078 -6.663754 -6.585669 -17.496780 -75.341423 -62.889240 -28.499416 -49.316494 70.354347 -68.878212 -33.525093 -2.602863 8.430433 6.667738 -7.736504 17.401276 75.244125 -62.959518 24.012711 44.471668 73.631950 68.641541 33.829716 0.237811 -109.687416 0.258555 -18.219028 153.588699 2.753422 0.167628 -16.980822 -21.351080 -19.454268 -109.680481 -0.269199 18.207956 153.575302 -2.767656 -0.181935 -16.985743 21.343494 19.450317 
19.995884 16.912365 14.037064 65.048866 -0.000000 0.000001 46.332359 -0.822194 -0.803176 35.289223 -0.567027 -0.343212 -30.249897 -9.841079 46.240894 -19.197588 14.383856 18.508123 -4.593932 -6.658008 -6.567222 -17.496780 -75.341423 -62.889240 -28.644548 -49.476517 70.242958 -68.788963 -33.377010 -2.815482 8.255428 6.722436 -7.871607 17.401276 75.244125 -62.959518 24.351267 44.892330 73.390892 68.559372 33.665745 -0.124576 -109.687416 0.258555 -18.219028 153.588699 2.753422 0.167628 -16.980822 -21.351080 -19.454268 -109.680481 -0.269199 18.207956 153.575302 -2.767656 -0.181935 -16.985743 21.343494 19.450317 
19.995884 16.912365 14.013335 64.823738 -0.000000 0.000001 46.507381 -0.822146 -0.803221 35.489296 -0.567019 -0.343196 -30.299891 -10.066202 46.241364 -18.948027 14.233595 18.506306 -4.592788 -6.652262 -6.548777 -17.496780 -75.341423 -62.889240 -28.790661 -49.636368 70.130569 -68.700531 -33.228661 -3.027454 8.080538 6.777545 -8.006556 17.401276 75.244125 -62.959518 24.694832 45.311958 73.144562 68.478600 33.501354 -0.485973 -109.687416 0.258555 -18.219028 153.588699 2.753422 0.167628 -16.980822 -21.351080 -19.454268 -109.680481 -0.269199 18.207956 153.575302 -2.767656 -0.181935 -16.985743 21.343494 19.450317 
19.995884 16.912365 13.989606 64.598640 -0.000000 0.000001 46.682400 -0.822097 -0.803267 35.689377 -0.567011 -0.343180 -30.349918 -10.291318 46.242039 -18.698639 14.083352 18.503819 -4.591646 -6.646516 -6.530332 -17.496780 -75.341423 -62.889240 -28.937729 -49.796024 70.017189 -68.612900 -33.080040 -3.238790 7.905759 6.833057 -8.141343 17.401276 75.244125 -62.959518 25.043497 45.730480 72.892830 68.399246 33.336563 -0.846389 -109.687416 0.258555 -18.219028 153.588699 2.753422 0.167628 -16.980822 -21.351080 -19.454268 -109.680473 -0.269200 18.207956 153.575302 -2.767656 -0.181935 -16.985743 21.343494 19.450317 
19.995884 16.912365 13.965877 64.373520 -0.000000 0.000001 46.857426 -0.822049 -0.803312 35.889454 -0.567003 -0.343163 -30.399981 -10.516429 46.242908 -18.449423 13.933128 18.500660 -4.590507 -6.640771 -6.511889 -17.496780 -75.341423 -62.889240 -29.085764 -49.955479 69.902786 -68.526085 -32.931156 -3.449493 7.731102 6.888978 -8.275973 17.401276 75.244125 -62.959518 25.397392 46.147835 72.635529 68.321266 33.171360 -1.205822 -109.687416 0.258555 -18.219028 153.588699 2.753422 0.167628 -16.980822 -21.351080 -19.454268 -109.680473 -0.269200 18.207956 153.575302 -2.767656 -0.181935 -16.985743 21.343494 19.450317 
19.995884 16.912365 13.942147 64.148430 -0.000000 0.000001 47.032436 -0.822000 -0.803357 36.089527 -0.566995 -0.343147 -30.450087 -10.741526 46.243988 -18.200373 13.782929 18.496828 -4.589367 -6.635024 -6.493443 -17.496780 -75.341423 -62.889240 -29.234795 -50.114750 69.787376 -68.440063 -32.782009 -3.659565 7.556560 6.945301 -8.410438 17.401276 75.244125 -62.959518 25.756670 46.564007 72.372581 68.244713 33.005779 -1.564272 -109.687416 0.258555 -18.219028 153.588699 2.753422 0.167628 -16.980822 -21.351080 -19.454268 -109.680473 -0.269200 18.207956 153.575302 -2.767656 -0.181935 -16.985743 21.343494 19.450317 
